M48
INCH
T11C0.020
T21C0.040
T32C0.028
T33C0.035
T34C0.128
T35C0.064
T36C0.030
T37C0.068
T38C0.036
T39C0.130
%
T11
X036150Y009150
X035150Y006500
X004087Y013495
X009687Y015295
X011500Y014880
X005850Y011600
X005150Y011600
X006550Y011600
X007250Y011600
X019487Y024945
X022237Y024895
X021900Y006000
X022550Y006050
X020387Y025245
X019887Y025245
X016487Y021645
X016237Y019895
X017237Y019395
X016737Y019395
X016187Y014520
X012700Y014830
X012150Y010850
X012900Y010850
X013900Y014880
X014300Y010850
X013600Y010850
X011200Y027950
X024987Y016395
X025587Y018095
X025137Y018495
X025737Y017145
X026737Y017395
X030737Y019145
X031237Y018145
X031237Y015145
X023887Y009820
X024550Y006550
X023900Y006550
X032850Y006850
X033400Y006850
X034500Y006850
T32
X009910Y002000
X005970Y002000
X022030Y002000
X017790Y002000
X015820Y002000
X013850Y002000
X011880Y002000
X033850Y002000
X035820Y002000
X033400Y006000
X032847Y015525
X032847Y017525
X033237Y010895
X034237Y010895
X024000Y002000
X025970Y002000
X027940Y002000
X029910Y002000
X031880Y002000
X032400Y006000
X031400Y006000
X030400Y006000
X029400Y006000
X028400Y006000
X027400Y006000
X026400Y006000
X025400Y006000
X024037Y024645
X024037Y022645
X023237Y010895
X023237Y012895
X024237Y012895
X024237Y010895
X025237Y010895
X025237Y012895
X026237Y012895
X027237Y012895
X028237Y012895
X029237Y012895
X027237Y010895
X028237Y010895
X029237Y010895
X030237Y010895
X031237Y010895
X032237Y010895
X007940Y002000
X004000Y002000
X006400Y006000
X005237Y009895
X002237Y007895
X003237Y007895
X004237Y007895
X005237Y007895
X006237Y007895
X007237Y007895
X006237Y009895
X007237Y009895
X008237Y009895
X009237Y009895
X010237Y009895
X011237Y009895
X011237Y007895
X012237Y009895
X012237Y007895
X013237Y009895
X013237Y007895
X007400Y006000
X008400Y006000
X009400Y006000
X010400Y006000
X011400Y006000
X012400Y006000
X013400Y006000
X014400Y006000
X008237Y007895
X009237Y007895
X014237Y007895
X015237Y007895
X016237Y007895
X017237Y007895
X018237Y007895
X018237Y010895
X019237Y010895
X020237Y010895
X021237Y010895
X022237Y010895
X021237Y012895
X022237Y012895
X016487Y017345
X017487Y017345
X018487Y017345
X019487Y017345
X020487Y017345
X021487Y017345
X002250Y024580
X014237Y016895
X014237Y017895
X014237Y018895
X014237Y019895
X014237Y020895
X014237Y021895
X014237Y022895
X014237Y023895
X009237Y024395
X009237Y023395
X012237Y023395
X012237Y024395
X009237Y026395
X002250Y026550
X009237Y025395
X012237Y025395
X012237Y026395
T36
X003250Y017830
X003250Y016830
X004500Y020830
X004500Y019830
X010500Y018580
X010500Y017580
X007750Y028800
X007750Y027800
T33
X032440Y023200
X031940Y022200
X031440Y023200
X030440Y023200
X029440Y023200
X030940Y022200
X029940Y022200
X028940Y022200
X035250Y012830
X002237Y018895
X003000Y014830
X011237Y012895
X020987Y008145
X019500Y003000
X023250Y027080
X017500Y026830
X013500Y026830
X017000Y025330
X026000Y021580
X031737Y018645
X031050Y008150
T38
X020986Y027650
X019648Y027650
T21
X033180Y027640
X032170Y027040
X029190Y027640
X028180Y027040
T35
X027590Y024500
X033790Y024500
T37
X018900Y026863
X021734Y026863
X021734Y028950
X018900Y028950
T34
X032940Y025700
X028440Y025700
T39
X038500Y001500
X038500Y028500
X001500Y001500
X001500Y028500
M30
